# xmcd CD database file
#
# Track frame offsets:
#	150
#	29991
#	53510
#	72773
#	103127
#	125513
#	146159
#	157587
#	184665
#	205068
#	232797
#	254876
#	277515
#
# Disc length: 4203 seconds
#
# Revision: 0
# Processed by: cddbd v1.5.1PL0 Copyright (c) Steve Scherf et al.
# Submitted via: CdAid (MTCDDB.DLL V2003.12.21)
#
DISCID=b310690d
DTITLE=Sade - Lovers Live
DYEAR=2002
DGENRE=Jazz
TTITLE0=Cherish The Day 
TTITLE1=Somebody Already Broke My Heart
TTITLE2=Smooth Operator
TTITLE3=Jezebel
TTITLE4=Kiss Of Life
TTITLE5=Slave Song 
TTITLE6=The Sweetest Gift
TTITLE7=The Sweetest Taboo
TTITLE8=Paradise
TTITLE9=No Ordinary Love
TTITLE10=By Your Side
TTITLE11=Flow
TTITLE12=Is It A Crime
EXTD=YEAR: 2002 ID3G:   8
EXTT0=
EXTT1=
EXTT2=
EXTT3=
EXTT4=
EXTT5=
EXTT6=
EXTT7=
EXTT8=
EXTT9=
EXTT10=
EXTT11=
EXTT12=
PLAYORDER=
